# xmcd CD database file
#
# Track frame offsets:
#	150
#	22147
#	44377
#	64922
#	86616
#	103430
#	123859
#	146959
#	167689
#	188451
#	212230
#	233426
#	253935
#	270268
#
# Disc length: 3949 seconds
#
# Revision: 2
# Processed by: cddbd v1.5.2PL0 Copyright (c) Steve Scherf et al.
# Submitted via: CDex 1.51
#
DISCID=c90f6b0e
DTITLE=The Resentments - Sunday Night Line-Up
DYEAR=2002
DGENRE=Americana
TTITLE0=That's Love
TTITLE1=Been So Wicked
TTITLE2=October
TTITLE3=Rhumba Boogie
TTITLE4=We Had It All
TTITLE5=Volver
TTITLE6=Daydrinking
TTITLE7=How Much I Lost
TTITLE8=Airplane Song
TTITLE9=I Am The Ghost
TTITLE10=Careless Love
TTITLE11=Hey Baby, Why - Banter
TTITLE12=Big Sweet Life
TTITLE13=Zombie For Love
EXTD=YEAR: 2002
EXTT0=
EXTT1=
EXTT2=
EXTT3=
EXTT4=
EXTT5=
EXTT6=
EXTT7=
EXTT8=
EXTT9=
EXTT10=
EXTT11=
EXTT12=
EXTT13=
PLAYORDER=
